# Blender v3.0.0 OBJ File: ''
# www.blender.org
mtllib chair.mtl
o Cube.001
v -2.104886 -0.423870 -2.104886
v -2.104886 -0.423870 2.104886
v -3.146921 1.391978 3.146921
v -3.146921 1.391979 -3.146921
v -5.933885 -1.000000 1.674557
v -5.933885 -0.423870 1.674557
v -5.933885 -0.423870 -1.674557
v -5.933885 -1.000000 -1.674557
v 2.104886 -0.423870 2.104886
v -2.922085 -0.423870 2.922085
v -1.674557 -0.423871 5.933885
v 1.674557 -0.423871 5.933885
v 2.922085 -0.423870 2.922085
v 1.674557 -1.000001 5.933885
v -1.674557 -1.000001 5.933885
v -4.686357 -0.999999 -4.686357
v -1.674557 -0.999999 -5.933885
v 1.674557 -0.999999 -5.933885
v 4.686357 -0.999999 -4.686357
v 5.933885 -1.000000 -1.674557
v 5.933885 -1.000000 1.674557
v 4.686357 -1.000001 4.686357
v -4.686357 -1.000001 4.686357
v 5.933885 -0.423870 -1.674557
v 5.933885 -0.423870 1.674557
v 2.104886 -0.423870 -2.104886
v 2.922085 -0.423870 -2.922085
v -2.922085 -0.423870 -2.922085
v 1.674557 -0.423869 -5.933885
v -1.674557 -0.423869 -5.933885
v 3.146921 1.391978 3.146921
v 3.146921 1.391979 -3.146921
v 4.686357 -0.423871 4.686357
v -4.686357 -0.423871 4.686357
v 4.686357 -0.423869 -4.686357
v -4.686357 -0.423869 -4.686357
v 4.447712 7.229267 3.146923
v 4.447712 7.229268 -3.146920
vt 0.794340 0.669340
vt 0.794340 0.580660
vt 0.794340 0.580660
vt 0.625000 0.089725
vt 0.375000 0.160275
vt 0.375000 0.089725
vt 0.785275 0.750000
vt 0.714725 0.750000
vt 0.705660 0.669340
vt 0.625000 0.839725
vt 0.375000 0.910275
vt 0.375000 0.839725
vt 0.125000 0.660275
vt 0.375000 0.589725
vt 0.214725 0.750000
vt 0.625000 0.589725
vt 0.375000 0.660275
vt 0.625000 0.660275
vt 0.705660 0.580660
vt 0.875000 0.589725
vt 0.875000 0.660275
vt 0.714725 0.500000
vt 0.785275 0.500000
vt 0.794340 0.669340
vt 0.705660 0.580660
vt 0.705660 0.669340
vt 0.651280 0.723720
vt 0.688445 0.686555
vt 0.669862 0.705138
vt 0.848720 0.723720
vt 0.811555 0.686555
vt 0.830138 0.705138
vt 0.651280 0.526280
vt 0.688445 0.563445
vt 0.848720 0.526280
vt 0.811555 0.563445
vt 0.625000 0.500000
vt 0.375000 0.500000
vt 0.625000 0.410275
vt 0.625000 0.910275
vt 0.375000 1.000000
vt 0.625000 0.000000
vt 0.375000 0.000000
vt 0.625000 0.750000
vt 0.375000 0.750000
vt 0.375000 0.339725
vt 0.625000 0.250000
vt 0.625000 0.339725
vt 0.375000 0.250000
vt 0.625000 0.160275
vt 0.375000 0.410275
vt 0.705660 0.669340
vt 0.705660 0.580660
vt 0.125000 0.589725
vt 0.214725 0.500000
vt 0.151280 0.526280
vt 0.285275 0.500000
vt 0.348720 0.526280
vt 0.285275 0.750000
vt 0.348720 0.723720
vt 0.151280 0.723720
vt 0.625000 1.000000
vn -0.8673 -0.4977 -0.0000
vn -1.0000 0.0000 0.0000
vn -0.0000 1.0000 0.0000
vn 0.0000 0.0000 1.0000
vn -0.0000 -1.0000 -0.0000
vn 1.0000 0.0000 0.0000
vn 0.0000 -0.4977 0.8673
vn 0.0000 -0.4977 -0.8673
vn 0.8673 -0.4977 -0.0000
vn 0.9239 0.0000 -0.3827
vn 0.3827 0.0000 -0.9239
vn -0.3827 0.0000 0.9239
vn -0.9239 0.0000 0.3827
vn 0.3827 0.0000 0.9239
vn 0.9239 0.0000 0.3827
vn -0.3827 0.0000 -0.9239
vn -0.9239 0.0000 -0.3827
vn 0.0000 0.0000 -1.0000
vn 0.9761 -0.2175 -0.0000
vn -0.6094 0.7929 0.0000
usemtl Material.001
s 1
f 2/1/1 4/2/1 1/3/1
f 6/4/2 8/5/2 5/6/2
f 11/7/3 12/8/3 9/9/3
f 12/10/4 15/11/4 14/12/4
f 5/13/5 20/14/5 15/15/5
f 24/16/6 21/17/6 20/14/6
f 25/18/3 24/16/3 26/19/3
f 7/20/3 6/21/3 2/1/3
f 29/22/3 30/23/3 1/3/3
f 9/9/7 3/24/7 2/1/7
f 1/3/8 32/25/8 26/19/8
f 26/19/9 31/26/9 9/9/9
f 12/8/3 33/27/3 13/28/3
f 33/27/3 25/29/3 13/28/3
f 6/21/3 34/30/3 10/31/3
f 34/30/3 11/32/3 10/31/3
f 24/16/3 35/33/3 27/34/3
f 35/33/3 29/22/3 27/34/3
f 30/23/3 36/35/3 28/36/3
f 36/35/3 7/20/3 28/36/3
f 20/14/10 35/37/10 24/16/10
f 19/38/11 29/39/11 35/37/11
f 11/40/12 23/41/12 15/11/12
f 34/42/13 5/6/13 23/43/13
f 14/12/14 33/44/14 12/10/14
f 22/45/15 25/18/15 33/44/15
f 17/46/16 36/47/16 30/48/16
f 16/49/17 7/50/17 36/47/17
f 30/48/18 18/51/18 17/46/18
f 3/24/4 31/26/4 37/52/4
f 32/25/18 4/2/18 38/53/18
f 32/25/19 37/52/19 31/26/19
f 3/24/20 38/53/20 4/2/20
f 2/1/1 3/24/1 4/2/1
f 6/4/2 7/50/2 8/5/2
f 13/28/3 9/9/3 12/8/3
f 9/9/3 2/1/3 11/7/3
f 2/1/3 10/31/3 11/7/3
f 12/10/4 11/40/4 15/11/4
f 5/13/5 8/54/5 17/55/5
f 8/54/5 16/56/5 17/55/5
f 17/55/5 18/57/5 5/13/5
f 18/57/5 19/58/5 20/14/5
f 20/14/5 21/17/5 14/59/5
f 21/17/5 22/60/5 14/59/5
f 14/59/5 15/15/5 20/14/5
f 15/15/5 23/61/5 5/13/5
f 18/57/5 20/14/5 5/13/5
f 24/16/6 25/18/6 21/17/6
f 27/34/3 26/19/3 24/16/3
f 26/19/3 9/9/3 25/18/3
f 9/9/3 13/28/3 25/18/3
f 10/31/3 2/1/3 6/21/3
f 2/1/3 1/3/3 7/20/3
f 1/3/3 28/36/3 7/20/3
f 28/36/3 1/3/3 30/23/3
f 1/3/3 26/19/3 29/22/3
f 26/19/3 27/34/3 29/22/3
f 9/9/7 31/26/7 3/24/7
f 1/3/8 4/2/8 32/25/8
f 26/19/9 32/25/9 31/26/9
f 20/14/10 19/38/10 35/37/10
f 19/38/11 18/51/11 29/39/11
f 11/40/12 34/62/12 23/41/12
f 34/42/13 6/4/13 5/6/13
f 14/12/14 22/45/14 33/44/14
f 22/45/15 21/17/15 25/18/15
f 17/46/16 16/49/16 36/47/16
f 16/49/17 8/5/17 7/50/17
f 30/48/18 29/39/18 18/51/18
f 32/25/19 38/53/19 37/52/19
f 3/24/20 37/52/20 38/53/20
