# Blender v3.0.0 OBJ File: ''
# www.blender.org
mtllib randomTestThing.mtl
o Cube
v 0.669566 1.000000 -0.669566
v 0.132559 -1.000000 -0.782405
v 0.669566 1.000000 0.669566
v 0.132559 -1.000000 0.782405
v -0.669566 1.000000 -0.669566
v -0.669566 1.000000 0.669566
v 0.835730 0.494432 0.468414
v 0.835730 0.494432 -0.468414
v 0.669566 2.435287 0.669566
v 0.669566 2.435287 -0.669566
v 0.074856 2.435287 0.669566
v -0.669566 1.690865 0.669566
v -0.669566 1.690865 -0.669566
v 0.074856 2.435287 -0.669566
v -0.782405 -1.000000 -0.520910
v -0.520910 -1.000000 -0.782405
v -0.520910 -1.000000 0.782405
v -0.782405 -1.000000 0.520910
v -1.000000 1.000000 0.611041
v -0.611041 1.000000 1.000000
v -0.724964 1.000000 0.724964
v -0.611041 1.000000 -1.000000
v -1.000000 1.000000 -0.611041
v -0.724964 1.000000 -0.724964
v 0.514425 -0.494432 0.468414
v 0.514425 -0.494432 -0.468414
v -1.000000 -1.000000 0.611041
v -0.611041 -1.000000 1.000000
v -0.611041 -1.000000 -1.000000
v -1.000000 -1.000000 -0.611041
v 0.132559 -2.438461 0.782405
v 0.132559 -2.438461 -0.782405
v -0.782405 -2.438461 0.520910
v -0.520910 -2.438461 0.782405
v -0.520910 -2.438461 -0.782405
v -0.782405 -2.438461 -0.520910
v 1.000000 1.000000 -1.000000
v 0.350155 -1.000000 -1.000000
v 1.000000 1.000000 1.000000
v 0.350155 -1.000000 1.000000
v 1.884780 0.153572 -0.468414
v 1.563476 -0.835293 -0.468414
v 1.884780 0.153572 0.468414
v 1.563476 -0.835293 0.468414
vt 0.740643 0.541304
vt 0.666304 0.541304
vt 0.833696 0.541304
vt 0.833696 0.708696
vt 0.840621 0.715621
vt 0.826380 0.750000
vt 0.375000 0.750000
vt 0.625000 0.951380
vt 0.375000 0.927979
vt 0.625000 0.298620
vt 0.375000 0.500000
vt 0.375000 0.322021
vt 0.438196 0.566448
vt 0.438196 0.683552
vt 0.438196 0.683552
vt 0.625000 0.048620
vt 0.375000 0.201380
vt 0.375000 0.048620
vt 0.875000 0.548620
vt 0.875000 0.701380
vt 0.666304 0.708696
vt 0.625000 0.500000
vt 0.826380 0.500000
vt 0.833696 0.541304
vt 0.666304 0.708696
vt 0.666304 0.541304
vt 0.833696 0.708696
vt 0.740643 0.708696
vt 0.850690 0.725690
vt 0.840621 0.534379
vt 0.625000 0.000000
vt 0.375000 0.000000
vt 0.625000 0.201380
vt 0.334709 0.527199
vt 0.213710 0.527199
vt 0.213710 0.527199
vt 0.334709 0.722801
vt 0.213710 0.722801
vt 0.125000 0.701380
vt 0.165291 0.690114
vt 0.165291 0.559886
vt 0.197021 0.500000
vt 0.125000 0.548620
vt 0.197021 0.750000
vt 0.334709 0.722801
vt 0.213710 0.722801
vt 0.165291 0.690114
vt 0.165291 0.559886
vt 0.334709 0.527199
vt 0.561804 0.566448
vt 0.625000 0.750000
vt 0.561804 0.683552
vt 0.561804 0.566448
vt 0.438196 0.566448
vt 0.561804 0.683552
vn 0.0000 0.0000 -1.0000
vn 0.0000 1.0000 0.0000
vn 0.0000 0.0000 1.0000
vn -0.3090 -0.9511 0.0000
vn -1.0000 0.0000 0.0000
vn 1.0000 0.0000 0.0000
vn -0.7071 0.7071 0.0000
vn -0.7071 0.0000 0.7071
vn -0.7071 0.0000 -0.7071
vn 0.0000 -1.0000 0.0000
vn 0.9511 -0.3090 0.0000
vn 0.3090 0.9511 0.0000
usemtl Material
s off
f 14/1/1 1/2/1 13/3/1
f 6/4/2 21/5/2 20/6/2
f 40/7/3 20/8/3 28/9/3
f 22/10/1 38/11/1 29/12/1
f 26/13/4 44/14/4 25/15/4
f 19/16/5 30/17/5 27/18/5
f 23/19/2 19/20/2 6/4/2
f 3/21/2 37/22/2 1/2/2
f 1/2/2 37/22/2 22/23/2
f 6/4/5 13/3/5 5/24/5
f 14/1/2 9/25/2 10/26/2
f 1/2/6 9/25/6 3/21/6
f 14/1/7 12/27/7 11/28/7
f 3/21/3 11/28/3 12/27/3
f 19/20/2 20/29/2 21/5/2
f 22/23/2 23/19/2 24/30/2
f 20/31/8 27/18/8 28/32/8
f 29/12/9 23/33/9 22/10/9
f 2/34/1 35/35/1 16/36/1
f 2/34/10 40/7/10 4/37/10
f 17/38/10 27/39/10 18/40/10
f 15/41/10 29/42/10 16/36/10
f 18/40/10 30/43/10 15/41/10
f 2/34/10 29/42/10 38/11/10
f 4/37/10 28/44/10 17/38/10
f 31/45/10 34/46/10 33/47/10
f 16/36/9 36/48/9 15/41/9
f 4/37/6 32/49/6 2/34/6
f 17/38/3 31/45/3 4/37/3
f 15/41/5 33/47/5 18/40/5
f 18/40/8 34/46/8 17/38/8
f 26/13/11 37/22/11 8/50/11
f 25/15/11 39/51/11 40/7/11
f 8/50/11 39/51/11 7/52/11
f 25/15/11 38/11/11 26/13/11
f 41/53/11 44/14/11 42/54/11
f 25/15/3 43/55/3 7/52/3
f 7/52/12 41/53/12 8/50/12
f 8/50/1 42/54/1 26/13/1
f 10/26/1 1/2/1 14/1/1
f 1/2/1 5/24/1 13/3/1
f 39/51/2 3/21/2 20/6/2
f 3/21/2 6/4/2 20/6/2
f 40/7/3 39/51/3 20/8/3
f 22/10/1 37/22/1 38/11/1
f 26/13/4 42/54/4 44/14/4
f 19/16/5 23/33/5 30/17/5
f 21/5/2 6/4/2 19/20/2
f 6/4/2 5/24/2 23/19/2
f 5/24/2 24/30/2 23/19/2
f 3/21/2 39/51/2 37/22/2
f 24/30/2 5/24/2 22/23/2
f 5/24/2 1/2/2 22/23/2
f 6/4/5 12/27/5 13/3/5
f 14/1/2 11/28/2 9/25/2
f 1/2/6 10/26/6 9/25/6
f 14/1/7 13/3/7 12/27/7
f 12/27/3 6/4/3 3/21/3
f 3/21/3 9/25/3 11/28/3
f 20/31/8 19/16/8 27/18/8
f 29/12/9 30/17/9 23/33/9
f 2/34/1 32/49/1 35/35/1
f 2/34/10 38/11/10 40/7/10
f 17/38/10 28/44/10 27/39/10
f 15/41/10 30/43/10 29/42/10
f 18/40/10 27/39/10 30/43/10
f 2/34/10 16/36/10 29/42/10
f 4/37/10 40/7/10 28/44/10
f 33/47/10 36/48/10 32/49/10
f 36/48/10 35/35/10 32/49/10
f 32/49/10 31/45/10 33/47/10
f 16/36/9 35/35/9 36/48/9
f 4/37/6 31/45/6 32/49/6
f 17/38/3 34/46/3 31/45/3
f 15/41/5 36/48/5 33/47/5
f 18/40/8 33/47/8 34/46/8
f 26/13/11 38/11/11 37/22/11
f 25/15/11 7/52/11 39/51/11
f 8/50/11 37/22/11 39/51/11
f 25/15/11 40/7/11 38/11/11
f 41/53/11 43/55/11 44/14/11
f 25/15/3 44/14/3 43/55/3
f 7/52/12 43/55/12 41/53/12
f 8/50/1 41/53/1 42/54/1
